# xmcd
#
# Track frame offsets:
#	180
#	12621
#	28481
#	41227
#	53205
#	64338
#	77301
#	90973
#	108678
#	124077
#	137779
#	154505
#	169964
#	187339
#
# Disc length: 2692 seconds
#
# Revision: 5
# Processed by: cddbd v1.5.1PL0 Copyright (c) Steve Scherf et al.
# Submitted via: audiograbber 1.83.01
#
DISCID=c70a820e
DTITLE=1995-09 Country Radio - 1995-09 Country Radio
DYEAR=1995
DGENRE=Country
TTITLE0=Clay Walker - Who Needs You Baby
TTITLE1=Alabama - In Pictures
TTITLE2=Wesley Dennis - Who's Counting
TTITLE3=Little Texas - Life Goes On
TTITLE4=4runner - Home Alone
TTITLE5=Brooks and Dunn - Whiskey Under The Bridge
TTITLE6=Victoria Shaw - Single Mother
TTITLE7=Bryan White - Rebecca Lynn
TTITLE8=Ty England - Smoke In Her Eys
TTITLE9=Bret James - If I Could See Love
TTITLE10=Lorrie Morgan - Back In Your Arms Again
TTITLE11=Jeff Copley - Evergreen
TTITLE12=Shelby Lynn - I'm Not The One
TTITLE13=Rob Crosby - The Trouble With Love
EXTD=
EXTT0=
EXTT1=
EXTT2=
EXTT3=
EXTT4=
EXTT5=
EXTT6=
EXTT7=
EXTT8=
EXTT9=
EXTT10=
EXTT11=
EXTT12=
EXTT13=
PLAYORDER=
